<mxfile host="app.diagrams.net" modified="2022-03-22T12:53:32.124Z" agent="5.0 (Windows NT 10.0; Win64; x64) AppleWebKit/537.36 (KHTML, like Gecko) Chrome/99.0.4844.74 Safari/537.36" etag="FfQ94Ba7WsSyNvfy3GET" version="17.1.4" type="github">
  <diagram id="8R0hw8_iBUOi3nXpnMJf" name="Page-1">
    <mxGraphModel dx="2071" dy="575" grid="1" gridSize="10" guides="1" tooltips="1" connect="1" arrows="1" fold="1" page="1" pageScale="1" pageWidth="850" pageHeight="1100" math="0" shadow="0">
      <root>
        <mxCell id="0" />
        <mxCell id="1" parent="0" />
        <mxCell id="0cwynDV6n2SvqEO9_UE7-34" value="" style="rounded=0;whiteSpace=wrap;html=1;fillColor=none;strokeColor=#FF0000;strokeWidth=2;" parent="1" vertex="1">
          <mxGeometry x="705" y="510" width="220" height="35" as="geometry" />
        </mxCell>
        <mxCell id="0cwynDV6n2SvqEO9_UE7-33" value="" style="rounded=0;whiteSpace=wrap;html=1;fillColor=none;strokeColor=#FF0000;strokeWidth=2;" parent="1" vertex="1">
          <mxGeometry x="-130" y="510" width="220" height="35" as="geometry" />
        </mxCell>
        <mxCell id="32sOMgZbkoTG0NqB_-wW-1" value="Node 0" style="rounded=0;whiteSpace=wrap;html=1;align=left;verticalAlign=top;" parent="1" vertex="1">
          <mxGeometry x="270" y="330" width="200" height="182" as="geometry" />
        </mxCell>
        <mxCell id="32sOMgZbkoTG0NqB_-wW-2" value="Node 1" style="rounded=0;whiteSpace=wrap;html=1;verticalAlign=top;align=left;" parent="1" vertex="1">
          <mxGeometry x="488" y="330" width="200" height="182" as="geometry" />
        </mxCell>
        <mxCell id="32sOMgZbkoTG0NqB_-wW-3" value="" style="rounded=1;whiteSpace=wrap;html=1;" parent="1" vertex="1">
          <mxGeometry x="295.5" y="370" width="121.25" height="40" as="geometry" />
        </mxCell>
        <mxCell id="32sOMgZbkoTG0NqB_-wW-4" value="Pod 0" style="text;html=1;strokeColor=none;fillColor=none;align=center;verticalAlign=middle;whiteSpace=wrap;rounded=0;" parent="1" vertex="1">
          <mxGeometry x="295.5" y="370" width="40" height="20" as="geometry" />
        </mxCell>
        <mxCell id="32sOMgZbkoTG0NqB_-wW-5" style="edgeStyle=none;rounded=0;orthogonalLoop=1;jettySize=auto;html=1;exitX=0.25;exitY=1;exitDx=0;exitDy=0;dashed=1;endArrow=openThin;endFill=0;strokeColor=#000000;strokeWidth=1;entryX=0.25;entryY=0;entryDx=0;entryDy=0;" parent="1" source="32sOMgZbkoTG0NqB_-wW-6" target="32sOMgZbkoTG0NqB_-wW-14" edge="1">
          <mxGeometry relative="1" as="geometry" />
        </mxCell>
        <mxCell id="32sOMgZbkoTG0NqB_-wW-6" value="eth0" style="rounded=0;whiteSpace=wrap;html=1;fillColor=#FFFFFF;" parent="1" vertex="1">
          <mxGeometry x="316.75" y="390" width="77.5" height="20" as="geometry" />
        </mxCell>
        <mxCell id="32sOMgZbkoTG0NqB_-wW-7" style="edgeStyle=none;shape=link;rounded=0;orthogonalLoop=1;jettySize=auto;html=1;exitX=0.5;exitY=1;exitDx=0;exitDy=0;" parent="1" source="32sOMgZbkoTG0NqB_-wW-9" target="32sOMgZbkoTG0NqB_-wW-21" edge="1">
          <mxGeometry relative="1" as="geometry">
            <mxPoint x="405" y="550" as="targetPoint" />
          </mxGeometry>
        </mxCell>
        <mxCell id="32sOMgZbkoTG0NqB_-wW-8" style="edgeStyle=none;rounded=0;orthogonalLoop=1;jettySize=auto;html=1;exitX=0.25;exitY=1;exitDx=0;exitDy=0;dashed=1;endArrow=openThin;endFill=0;strokeColor=#000000;strokeWidth=1;" parent="1" source="32sOMgZbkoTG0NqB_-wW-9" target="32sOMgZbkoTG0NqB_-wW-21" edge="1">
          <mxGeometry relative="1" as="geometry" />
        </mxCell>
        <mxCell id="32sOMgZbkoTG0NqB_-wW-9" value="ens0" style="rounded=0;whiteSpace=wrap;html=1;fillColor=#A9C4EB;" parent="1" vertex="1">
          <mxGeometry x="317.38" y="492" width="77.5" height="20" as="geometry" />
        </mxCell>
        <mxCell id="32sOMgZbkoTG0NqB_-wW-10" style="edgeStyle=none;shape=link;rounded=0;orthogonalLoop=1;jettySize=auto;html=1;exitX=0.5;exitY=1;exitDx=0;exitDy=0;" parent="1" source="32sOMgZbkoTG0NqB_-wW-12" edge="1">
          <mxGeometry relative="1" as="geometry">
            <mxPoint x="577.25" y="548" as="targetPoint" />
          </mxGeometry>
        </mxCell>
        <mxCell id="32sOMgZbkoTG0NqB_-wW-11" style="edgeStyle=none;rounded=0;orthogonalLoop=1;jettySize=auto;html=1;dashed=1;endArrow=openThin;endFill=0;strokeColor=#000000;strokeWidth=1;entryX=0.75;entryY=1;entryDx=0;entryDy=0;" parent="1" target="32sOMgZbkoTG0NqB_-wW-12" edge="1">
          <mxGeometry relative="1" as="geometry">
            <mxPoint x="596.625" y="548" as="sourcePoint" />
          </mxGeometry>
        </mxCell>
        <mxCell id="32sOMgZbkoTG0NqB_-wW-12" value="ens1" style="rounded=0;whiteSpace=wrap;html=1;fillColor=#FFCC99;" parent="1" vertex="1">
          <mxGeometry x="538.5" y="492" width="77.5" height="20" as="geometry" />
        </mxCell>
        <mxCell id="32sOMgZbkoTG0NqB_-wW-13" value="" style="endArrow=classic;startArrow=classic;html=1;entryX=0.5;entryY=1;entryDx=0;entryDy=0;exitX=0.5;exitY=0;exitDx=0;exitDy=0;shape=link;" parent="1" source="32sOMgZbkoTG0NqB_-wW-14" target="32sOMgZbkoTG0NqB_-wW-6" edge="1">
          <mxGeometry width="50" height="50" relative="1" as="geometry">
            <mxPoint x="395.5" y="530" as="sourcePoint" />
            <mxPoint x="445.5" y="480" as="targetPoint" />
          </mxGeometry>
        </mxCell>
        <mxCell id="32sOMgZbkoTG0NqB_-wW-14" value="veth0" style="rounded=0;whiteSpace=wrap;html=1;fillColor=#FFCC99;" parent="1" vertex="1">
          <mxGeometry x="317.38" y="440" width="77.5" height="20" as="geometry" />
        </mxCell>
        <mxCell id="32sOMgZbkoTG0NqB_-wW-15" value="" style="rounded=1;whiteSpace=wrap;html=1;" parent="1" vertex="1">
          <mxGeometry x="516.5" y="369" width="120" height="40" as="geometry" />
        </mxCell>
        <mxCell id="32sOMgZbkoTG0NqB_-wW-16" value="Pod 1" style="text;html=1;strokeColor=none;fillColor=none;align=center;verticalAlign=middle;whiteSpace=wrap;rounded=0;" parent="1" vertex="1">
          <mxGeometry x="516.5" y="369" width="40" height="20" as="geometry" />
        </mxCell>
        <mxCell id="32sOMgZbkoTG0NqB_-wW-17" value="eth1" style="rounded=0;whiteSpace=wrap;html=1;fillColor=#FFFFFF;" parent="1" vertex="1">
          <mxGeometry x="537.75" y="389" width="77.5" height="20" as="geometry" />
        </mxCell>
        <mxCell id="32sOMgZbkoTG0NqB_-wW-18" value="" style="endArrow=classic;startArrow=classic;html=1;entryX=0.5;entryY=1;entryDx=0;entryDy=0;exitX=0.5;exitY=0;exitDx=0;exitDy=0;shape=link;" parent="1" source="32sOMgZbkoTG0NqB_-wW-20" target="32sOMgZbkoTG0NqB_-wW-17" edge="1">
          <mxGeometry width="50" height="50" relative="1" as="geometry">
            <mxPoint x="616.5" y="529" as="sourcePoint" />
            <mxPoint x="666.5" y="479" as="targetPoint" />
          </mxGeometry>
        </mxCell>
        <mxCell id="32sOMgZbkoTG0NqB_-wW-19" style="edgeStyle=none;rounded=0;orthogonalLoop=1;jettySize=auto;html=1;exitX=0.75;exitY=0;exitDx=0;exitDy=0;entryX=0.75;entryY=1;entryDx=0;entryDy=0;dashed=1;endArrow=openThin;endFill=0;strokeColor=#000000;strokeWidth=1;" parent="1" source="32sOMgZbkoTG0NqB_-wW-20" target="32sOMgZbkoTG0NqB_-wW-17" edge="1">
          <mxGeometry relative="1" as="geometry" />
        </mxCell>
        <mxCell id="32sOMgZbkoTG0NqB_-wW-20" value="veth1" style="rounded=0;whiteSpace=wrap;html=1;fillColor=#A9C4EB;" parent="1" vertex="1">
          <mxGeometry x="537.75" y="439" width="77.5" height="20" as="geometry" />
        </mxCell>
        <mxCell id="32sOMgZbkoTG0NqB_-wW-21" value="" style="line;strokeWidth=4;html=1;perimeter=backbonePerimeter;points=[];outlineConnect=0;fillColor=#FFFFFF;" parent="1" vertex="1">
          <mxGeometry x="-140" y="545" width="1240" height="10" as="geometry" />
        </mxCell>
        <mxCell id="32sOMgZbkoTG0NqB_-wW-22" value="Mac-eth0" style="rounded=0;whiteSpace=wrap;html=1;strokeColor=#000000;fillColor=#FFF2CC;" parent="1" vertex="1">
          <mxGeometry x="-32" y="413.2" width="60" height="20" as="geometry" />
        </mxCell>
        <mxCell id="32sOMgZbkoTG0NqB_-wW-23" value="Mac-veth0" style="rounded=0;whiteSpace=wrap;html=1;strokeColor=#000000;fillColor=#FFF2CC;" parent="1" vertex="1">
          <mxGeometry x="28" y="413.2" width="60" height="20" as="geometry" />
        </mxCell>
        <mxCell id="32sOMgZbkoTG0NqB_-wW-24" style="edgeStyle=none;rounded=0;orthogonalLoop=1;jettySize=auto;html=1;dashed=1;endArrow=openThin;endFill=0;strokeColor=#000000;strokeWidth=1;shape=flexArrow;" parent="1" edge="1">
          <mxGeometry relative="1" as="geometry">
            <mxPoint x="109.5" y="500" as="targetPoint" />
            <mxPoint x="109.5" y="440" as="sourcePoint" />
          </mxGeometry>
        </mxCell>
        <mxCell id="32sOMgZbkoTG0NqB_-wW-25" value="IP-eth0" style="rounded=0;whiteSpace=wrap;html=1;strokeColor=#000000;fillColor=#F8CECC;" parent="1" vertex="1">
          <mxGeometry x="88" y="413.2" width="45" height="20" as="geometry" />
        </mxCell>
        <mxCell id="32sOMgZbkoTG0NqB_-wW-26" value="IP-eth1" style="rounded=0;whiteSpace=wrap;html=1;strokeColor=#000000;fillColor=#F8CECC;" parent="1" vertex="1">
          <mxGeometry x="133" y="413.2" width="45" height="20" as="geometry" />
        </mxCell>
        <mxCell id="32sOMgZbkoTG0NqB_-wW-27" value="1234" style="rounded=0;whiteSpace=wrap;html=1;strokeColor=#000000;fillColor=#D5E8D4;" parent="1" vertex="1">
          <mxGeometry x="178" y="413.2" width="40" height="20" as="geometry" />
        </mxCell>
        <mxCell id="32sOMgZbkoTG0NqB_-wW-28" style="edgeStyle=none;rounded=0;orthogonalLoop=1;jettySize=auto;html=1;exitX=1;exitY=0.5;exitDx=0;exitDy=0;dashed=1;endArrow=openThin;endFill=0;strokeColor=#000000;strokeWidth=1;entryX=-0.012;entryY=0.292;entryDx=0;entryDy=0;entryPerimeter=0;" parent="1" source="32sOMgZbkoTG0NqB_-wW-29" edge="1">
          <mxGeometry relative="1" as="geometry">
            <mxPoint x="285.5999999999999" y="423.58400000000006" as="targetPoint" />
          </mxGeometry>
        </mxCell>
        <mxCell id="32sOMgZbkoTG0NqB_-wW-29" value="8080" style="rounded=0;whiteSpace=wrap;html=1;strokeColor=#000000;fillColor=#D5E8D4;" parent="1" vertex="1">
          <mxGeometry x="218" y="413.2" width="35" height="20" as="geometry" />
        </mxCell>
        <mxCell id="32sOMgZbkoTG0NqB_-wW-35" style="edgeStyle=orthogonalEdgeStyle;rounded=0;orthogonalLoop=1;jettySize=auto;html=1;exitX=1;exitY=0.5;exitDx=0;exitDy=0;dashed=1;endArrow=openThin;endFill=0;" parent="1" edge="1">
          <mxGeometry relative="1" as="geometry">
            <mxPoint x="280" y="529" as="targetPoint" />
            <mxPoint x="256" y="528.75" as="sourcePoint" />
          </mxGeometry>
        </mxCell>
        <mxCell id="32sOMgZbkoTG0NqB_-wW-37" value="egress" style="text;html=1;strokeColor=none;fillColor=none;align=center;verticalAlign=middle;whiteSpace=wrap;rounded=0;" parent="1" vertex="1">
          <mxGeometry x="287" y="518.5" width="40" height="20" as="geometry" />
        </mxCell>
        <mxCell id="32sOMgZbkoTG0NqB_-wW-38" value="" style="shape=image;verticalLabelPosition=bottom;labelBackgroundColor=#ffffff;verticalAlign=top;aspect=fixed;imageAspect=0;image=data:image/png,iVBORw0KGgoAAAANSUhEUgAAAX0AAACECAMAAABLTQsGAAABNVBMVEX///8BAQEAAADZ8f3/4QDp6ekAru88PDxCQkJvb2++vr6urq6lpaX29vaioqIuLi40NDTf+P//5QDX19e4uLgAsfPGxsbh+v//6AB5eXkAqu6cnJyEhITU1NRkZGTOzs7v7+8cHByCgoJPT0/h4eGSoqrI3ulRUVEmJiYODg5ycnKMjIxbW1u6z9kAmtRFTVHS6fXUuwA8Q0anusMAibxdZ2wBKTgAeKQBUG4BOU7O7vxeUwF4hoz32gApJAEzODuFlJxpdHqJ1PcAXH4Als4BJTOfsbqNnaW2oQA7u/J5awHLswDiyAAAbJTBqgA1LwFFPQEhGxY/jbCy5v8BFB0ma4iE0/dfw/MxufGk3/mYhgAARV4bFwEALkRxttaGdwGlkgByZAFxlKZPRgE7NQGVw9lgVQGq5+vfAAAUHElEQVR4nO2dC1caSRaAoRBEEBGQhxKxUYK0+H5EYyQ+4pjEmGR24655zGySze78/5+wVd31ruru6hYDG7jnzJkTpIvqr25X3Xvr1u1Y7CFkugPSSw/S8lgCZRkgyQy6G6MpJQDi8ThoDrofoykNBD8OwKD7MZLiqv6Y/mBkyoEfB91Bd2QUxSKqnxt0T0ZR6mPVH6B0XNW3x6o/AFnCE8/yoDsykrKMZ/3SoDsykpJ26U8Ouh8jKUk88dQH3ZGRlOx44hmgLI/93AHKikt/fdD9GEnJxV36M4PuyEhKDi+649j+IKSFwwytQXdkJKUyXnQHKHNj+gOU7Jj+AAXTH2/pDkQwfXvQ/RhNGc88g5TMmP6AJGdZVgbb++ONrZ8ouaVuYyXftO0mpr846B6NjmTWAZW4S3/eMrludbZr8r2xeMu0zahTAWA1MNSzhq6zrZ/QxV9WKnmFPMYPZud8r3STrsD8T+roryjLevZ4ANIV7ysbOBqa/3md/cUkl/aB7+j/lIfxk5zEV46336OKZfvCd/lrrZ85slIAMP2ze/2LSC4dwN7Fq25zWVPUNgKNAXT8/0CSpaW5end5Hslyd2ZuabElzSJTQZqPAcvr6ow9hu8ji9n5dAeo0pxdr2doqkjWCL6CeLpJr1MHZtSlNLMieU5sCscy2a3k6A5uOPytLtcuGKdcCVLq5lXsMkpHVmfmTeGja9Zg47mWO7D0U9vHHh09ya4EkBfHwBg++nq33sgLF8EBTA76hodIMp1wREOJPJMBnSk0umKtKuyVRbefY9GwBn3HQyQVES6xcU53t7a21uF/u3m7b2MA21jva46tlTQQy/LfcghuJKCBmEkv5CadC7PSrAB2D872NtrbiULVlcR2u72xd3a+1bzvCCC973Pwf15jHKtiT67PZ71HPR3cQmel8WjOO00sb9QNQZAxgvx+yiYOmid7EHshoUoBjcLVyW7EEXAvq/d9sX0U4n5nH3kMwKppC/kpj9D5ZCjwjiB3Z5G5no5s68izIYADs3fiPAOh4ee7D5HW/yiM7QtAWvvorRg24hCq6yahydAKiejn8hT+0/1N2PZJ1Y8+fgo2TvIh+QP7gUzMEPTj7tSn6YhJzIq1ALoq/2j06yTc+Le/l8vlI9j0RiB9NACJjYNQ/B+saEk4+qgjGj8vBH2nibxSACcafRvDz7c/LKTKSPl3TeijAWifh+H/UEcqwtJH8LL3o68LjUeiX8F7TPZ2IvE6lSq/NZt7XKludMzxP1TtgPD0Nc9hWPqwCelEciT6XZz/tAfXWqj8qfITiP+xKf5EIh9C+f03enWSSy5mMpWW5fedqUj2l2Q6hqaPwif3p4/P124hQ6fwGs098TD4CxshlH8qHPpSd5U4eZPz3iG5KPTjYOW+9CEmQZsi0Xfzn8CZY2YeI+W/RLd7DpdVaF1CT6uAPC1XoP+FfC/BGaiemtMPk9qcq8+KxvGkMlffi770IEagD9vgjadI9PGae+USvUD499HNdq7ae49Ptk5tkYGd3zo4e7zXRna/c0nhJMTEbxmz72qck7TeZI1EPw7S96YfF/aNItHHhwwfY32+W4Bm56WBn9Y5OLtqb8On4ywEfdM6hTMeP6q9PiJ98UB3NPp8hyLRxwVdTshs8nrz8Og3t6wdL/I/3f81D042zkPQN9tPKXkHXXQNKPTVy7S9EXbWItEXlD8S/XVu1U1U24+3uE4/OXrx9nD/cnMf3dCTy83N/f3Dty+Ont4G35v+54z8rWlP9vCnNFEumb7HlUpnhKlHoW/ShDDzK/R9bgPLPC4lBQCayfcY+i9v9zfhEuDIJpr7X6TK+J/lciq1uf8WPSHh4MdVJ0eryn6yortA+hXlAbHmVtRuiocMZPpganqGl3l9YIXbJJLpB8MHa7FFvOyeJ17iBfb26eGmyxgLwvyW/ROJOwqXhy+ehKIfbPDnVnz7q5t7gunHYsSpFL5n+dFXsrysGf8HSKFvNM1ikxO4OST20X6KJw9Bo9DPPz5CgZ8uOMKNwWWYiSe4QzkpSm43phdbrVKmQT9JK9cY0dfgF5bdYPqxWFJdHLgHSKFvNM12SU4fFEfrHbCI8eu7FLY/D46JfPj0z7u7jyk6Br+FirMF2Tw50ca3py3ylxZdiZVwhRl9zeLM98aEfsxSV1aWKRmNfoumVB5duugh2Y93Fx8SiU8L7rzT2ZZd3ONPF3flhQX4XJjDV917RcRpR/TkyVOhsDWkX7k/fVJ0jv8eXcqi0YfKj+eew7KDPnX36di1P1HU7RDe8JV2v6Vw/OEfISP8AT1p8OwnpaGq4M+VlduQvnXvmSem2YRhy25E+jly2Arslx30BC8KuqXgsnrqEeOpvgy5vxKQtVnn4StJhrl70o8p4Pg5zJD+tNIIjXRGpB/L0Lnn8OKYo3ux4AZ99KqfKJyF3FwMMHmWePhqug+hrzQSUfcDLE49fWXqYRoVlX5sje4tnvGxzbsFN9yv1/zCeVj4/qd4c/7w6eAo27KG9JfkrwmugyH9lkKfbhlFpk9/G4Atbk/9oxvt1+61FNoeB7Z86PsXSF3j4OtunXhhmj8Y0ZcTT8URNqRvPQT9ZIdcCpp7BDYKN6fg7e7pNP+xH3sXk/Khr8VT4eDrcpuT+G/q9qQZfVlrxfBwdN2nexbR6ceSTYofnLerZNF1jH3F3ExUN7b84TcPtuJKP/1Vn4usaRdnknCjrh1G9BVTXfqVyPP+vVddJEnuQAk4QVsryNpH9mZTYb/Nkhk0Oh4HHZQUsX0l/gU0Lb/fz3Kqr/s7sYfy6t6wQl/j02VtZc0VU4si2zz3tThdsfI80ZN2oXDhLrpb4nwvJJIA8Oyz5pTFhrNNud0B/Mf+UYYmg69ziDPkj5o4nUJ/vi5KV5ciLD2JhvTVUOh9vS0iDe5kAwAHexdues85W4YLBTcCzb72tVj7Jibg3t7SlJTtU+6b/udUMgy+bvOXGqOaEKdJfF9dhORwUWRflz5CCv25nLdo2q5zbcMO33453PyCTB60iVioVtsbZ1vCjQDwqjYxUdt5zo/HPucct5v0cQp4FwKL7+gy3pgnoFu4I+xtgbwVhb56StMvytbJe8pkOq8+GS0hO8chDRX55dXV1cuTg1NbQg9+3ED4ExPF3jWbtF6Uy7/RtYImPATtpyeZkmqGiT0YWnctNH0A0jJ8M/qrfs9QyN0V3a3UxYdU2lEU/mK/qhUnXKnt/IEp/1l27SS8TVwlhmmA7rMYQ1zhwv1R30hI+vp2DOgvaQ6HcxNquJ1FvSK1ptRJUnsHX3u1CSLFHgnU/QvlRDyFQ0PsowMSxPA19ln2tWKWWqz8jEc6UCj6sJmGrisK/bpwnmIx29Vl7fG31Q/6sVipEcQfsb9h7KHuf8aMz6uvU4LyJ7ZJCE+3XhLhJh6ZzBzLaPGK0YWhDyZn9GkpEfd1ubvqD32o//Pe+FEv/vjWo5OOS5+ofttNRoTK3yFm0h75m48BxvzcjjQsXMzZM0Aain6nkdU+hREzSjiG/aIfmyHE1HkOgOs3xaLAfqL4Bn8fGaevsYdMAqMFMvdo/CQiLHVKsEtz/KmUR55Xh515wIpGEaLR5wus9I1+HsO3Ff7gfU1Ue0f1v+PvbyQSVPlpGnrbxn/1PiPKNJzztJJCOptPNkRYmwe2NqsESqNlEvIeZL/ok6Ty697Oqx+yJ1uT2UN57n7fBf7aDVDQMxhVvA0Amp7Kzw5N0a9UhMSSWb8TR1HsfUUVItFf41voF/01rKw3xSJZT1m3dxTVL+5gvC8LCaL80OE9oD4yWXi93N0cNXmwW7C0LKY2rHlc6EojktpKbUbJYRYXqT7RxzuN4FnNmdKlq64V5ccjRLS9QM5gtMnCexXw0lGLBnnSsVxlWj4+2PSPEJU0sWwDa0XCHyV/X1y++0Qfn2EE74rMkmdX2T1Z+WvP3O+fYmX/hPcFaGooSTL3qkNl2SovJgExipyyy6NvRoUnLCXhz67Yku3UJ/okt9Bl+7t8b19l5e+9xxYP2Zb5iFOw6NRDrE6PeENSz8uRqaAklHmFLKiXJFnMrql+qri9EpI+XIrkjvWJPi7V+MOhXLtWNEua+Ys3OOOZbr6T3Xi2Kbbra/N7018LfINIVtVr7Y1ZdRU/v00Wij78yYZiQvQhzoMET/vfarwtzzX6XJx78NLAHTQ9RnlBfwKwRR4GOvPrHV4270tzTvAB30XNrOJxY4vqDMXZneHO6zY1aqTGOGd9pOO1mHHTPjMn+WbfT/D4i98wfbYFQ5Ih2vSTU/wdrS7LyZuOrJscsUvq5nQvtcooX+Ryhkzpo5/Laz2XaFm0suC8F2hvumvqV3XB+p3XfvwF0GSpDx9S7sFfEuyhqT8eS6ict2x7hANkIWmfZvSVRDTQYdOHWX1Fp28eVO+5t4WlhNW0J0zrYi/e77ClF68MYJdLPPno+rtbdN3dxvQ7Wo+Lq6INmlP1RcuspzlimxrSzypTD3PiTKJsoNnoLnm6jP2hvyTSJ3EEqWufaayHxBkOOPoX2N+lU0/1HLeqVRxW48U7mqMR+sgY0lfTQZj/p56eyAoyN1cJeBz7Q78i0dcoP/rzH696NWcEitjcP+HyDY+x1UOnngTe5dLXgGQJDWHqc3oUT/Smn/SZ+A131X3kYXRfNToJ/+t3N71esfdDpQ/9XbjsxrloQ5Uc0tD9ZIk93MbdzHnBD0OfDfaw0C+Jqy7yd+VkGMIfgOfvf39vq/Th1FP+E20K00ysAj5Yqj9AwWqvmpzsQtLiihFFp88s4GGhT2yed9SuKb7y2m3h7l6kf7yw7+wJM4er7Wf1sBzOWbNOLrFV0V43nXkyyjgNH31i738WzJpAg4zP+0FWD1J9YUh2faINXPK4kfLzh0orSnqsvxM/5PRn+UgDlvfB9Lf4VOfqvyGXW+iYUPq4ooCHw8W83aYV2EGLP+MypeayedBXTB4+1jA09El4n/OotHaP9GN5nj40ccATMQV3A4eDtJ3iSgMEmj0VvkI3dCBM6WuOvLEo89DQx5mi4A2PfycIPxfShIIAXYrp5zi7QW9z8kcn/EPKOT7P3/GXzOhbGm+W+6mhoY9NA2d3hU39Qfj5cm7bp8A5X/0E4MozzmSEaxLo19VpQ/xS/QxkQRnQzy0ua50WBmho6JOCSczmdPHr7U52K8S1KrQR/C/lVPkFF+ckNqdXaUK+nKXX21py09JrARzPWaGfT0vihIN0XWZdGR765Py0uI9S7L33VX8CuorCyeBpyj1tarPVYA9P/PpStPzZFW0EN9aqy69kcH0HkxxmfY+5gPfw0G8BnfJPFCe++55YsVFUp9pG6f0QfhlXuWJRZmLxe9iUywKuyTlR/5NzSrXYJraeotXniYt7i8NDH1eNiYO/pC3c2isvNXJu5nG14LIHL9xyAyjKzJbdAk4T8jpBJJfSXZ2pWOjzXMlJopRllQxPZPo2N8BDRJ8k9HD+Lsbf++7NH+zi4j63+6TKxhM+0Fbdclv1MilzvpvrsrClOTJ9fpNkiOiTvgAgJzAUizvPPPljLqiSDxQU4/8C2F47OuDrfMszn7Zlzr7DhYsi0heNr2GiT3JkRIeX8P/uAPDg/2LTrfbwCcX4j/gdlsJjvx0WJMb4hcnrQeqyDZI+OVoMNMlTE8Va79t/MAbCHP/g031X7xc+Hhc+4c3dAzrxX2Gjx/L82ZxBGXwA0mJeYcSKkCKcoaLPKmd81iVuFms3765/PCc44uToyhfM/sItbAtNTnT8vV0QTU6/VIXgYvrKqzMjVAKOKxkdQ0WflnICOLNEnYBqtd7Nzc6bN2924P/IMr1fXoDsHdYf3HMUjjHknP+lkR7fRJEl//cQaLK/o1TBtmWnY7jok6o9XtqPhwALTiaMg9vU3Sc8zxyTsrZQOmftaoGcofOnH4tlvKefR7oAafgK8GBNWXqGjD4x+mFnv08oecvyMNwQ5WclNTD9+JEL7vRsz5A+XPTnNcan7VWKORR95/nR5KMr2SYDpk+bA+A/N57qj5+Bz/RJ2aM2Dk7q2bx8SgnGzehDWaqvszO8zfSUzwtrTOm7beWXtRsMq8NGn1VDQceifdSfD0GAJonoFzD9y3J5/4ixN6SPJFlaysxlKiX/AvBSiMJPJqdm5BelElFmu9BvY1MS8u75qg3+CPpf3upf2+HDb9TAZ/RT5XJqH1XuxLNTn9+/spQ1kLlMybJ8GpmbEaUe+v08WbkFo3Q8TylxjxJwDujq9L828RUA4ZvYu6X0afnUQxObZyyuiNVQEP8b5bQidLyA5PbSHRVM/793Kbd2J7L+nbnJGvSd/T9IV15GAHj26qZYY3Zmb+c6zi0OdOV18WOLc6NwfIEGgBTv1FSTHYsqml1oKL9fv0L+1c3Ou29/PQf80rDGXARkdxKL0wnwH3+4+OedW7c27Ps/RlS0gTRpXec+rrMKP86BxWPX16V1bKmzNX63q4EkffZRBPLOJ3nHdV+lLsJp+4O7tUhLqZIAM3iIt/39cpIRTR6/PUX25jvqMoL4v6Gdw22rU9U3zBUccZnhltPm9LLXAKDPuZortIAQyqZC8X2c1l9o4ypt41fZGwnZ3IU4kdeNyyZo5iCx3s06ww+e3ALwsuq8OWqDvFDQ/L1DIy151zUCHRrxqDQ6dMony256Wnbdu7wNGgfnL6/2rs5O6ZiEOp0ysmK5jPNCtClXmplaIRmv+fVHGZ3bOif5vvwaLeQRjMVTnJOwzawGlhX0nvGk5h0zZCgiHaMcPYEabJseJFEkq1+i9eWtx6LKVHT2UHJq+QQ0B92nyZGS+04RrXmpspWYhDOWBxaLVNpxV96OYh2N5WHFynTX89DS76zX9ZnLIy7/A7bF4EmDp9/fAAAAAElFTkSuQmCC;" parent="1" vertex="1">
          <mxGeometry x="296.5" y="439" width="41" height="14.2" as="geometry" />
        </mxCell>
        <mxCell id="32sOMgZbkoTG0NqB_-wW-39" value="egress" style="text;html=1;strokeColor=none;fillColor=none;align=center;verticalAlign=middle;whiteSpace=wrap;rounded=0;" parent="1" vertex="1">
          <mxGeometry x="605" y="416" width="40" height="20" as="geometry" />
        </mxCell>
        <mxCell id="32sOMgZbkoTG0NqB_-wW-40" value="ingress" style="text;html=1;strokeColor=none;fillColor=none;align=center;verticalAlign=middle;whiteSpace=wrap;rounded=0;" parent="1" vertex="1">
          <mxGeometry x="291.5" y="413.2" width="40" height="20" as="geometry" />
        </mxCell>
        <mxCell id="32sOMgZbkoTG0NqB_-wW-41" value="" style="shape=image;verticalLabelPosition=bottom;labelBackgroundColor=#ffffff;verticalAlign=top;aspect=fixed;imageAspect=0;image=data:image/png,iVBORw0KGgoAAAANSUhEUgAAAX0AAACECAMAAABLTQsGAAABNVBMVEX///8BAQEAAADZ8f3/4QDp6ekAru88PDxCQkJvb2++vr6urq6lpaX29vaioqIuLi40NDTf+P//5QDX19e4uLgAsfPGxsbh+v//6AB5eXkAqu6cnJyEhITU1NRkZGTOzs7v7+8cHByCgoJPT0/h4eGSoqrI3ulRUVEmJiYODg5ycnKMjIxbW1u6z9kAmtRFTVHS6fXUuwA8Q0anusMAibxdZ2wBKTgAeKQBUG4BOU7O7vxeUwF4hoz32gApJAEzODuFlJxpdHqJ1PcAXH4Als4BJTOfsbqNnaW2oQA7u/J5awHLswDiyAAAbJTBqgA1LwFFPQEhGxY/jbCy5v8BFB0ma4iE0/dfw/MxufGk3/mYhgAARV4bFwEALkRxttaGdwGlkgByZAFxlKZPRgE7NQGVw9lgVQGq5+vfAAAUHElEQVR4nO2dC1caSRaAoRBEEBGQhxKxUYK0+H5EYyQ+4pjEmGR24655zGySze78/5+wVd31ruru6hYDG7jnzJkTpIvqr25X3Xvr1u1Y7CFkugPSSw/S8lgCZRkgyQy6G6MpJQDi8ThoDrofoykNBD8OwKD7MZLiqv6Y/mBkyoEfB91Bd2QUxSKqnxt0T0ZR6mPVH6B0XNW3x6o/AFnCE8/yoDsykrKMZ/3SoDsykpJ26U8Ouh8jKUk88dQH3ZGRlOx44hmgLI/93AHKikt/fdD9GEnJxV36M4PuyEhKDi+649j+IKSFwwytQXdkJKUyXnQHKHNj+gOU7Jj+AAXTH2/pDkQwfXvQ/RhNGc88g5TMmP6AJGdZVgbb++ONrZ8ouaVuYyXftO0mpr846B6NjmTWAZW4S3/eMrludbZr8r2xeMu0zahTAWA1MNSzhq6zrZ/QxV9WKnmFPMYPZud8r3STrsD8T+roryjLevZ4ANIV7ysbOBqa/3md/cUkl/aB7+j/lIfxk5zEV46336OKZfvCd/lrrZ85slIAMP2ze/2LSC4dwN7Fq25zWVPUNgKNAXT8/0CSpaW5end5Hslyd2ZuabElzSJTQZqPAcvr6ow9hu8ji9n5dAeo0pxdr2doqkjWCL6CeLpJr1MHZtSlNLMieU5sCscy2a3k6A5uOPytLtcuGKdcCVLq5lXsMkpHVmfmTeGja9Zg47mWO7D0U9vHHh09ya4EkBfHwBg++nq33sgLF8EBTA76hodIMp1wREOJPJMBnSk0umKtKuyVRbefY9GwBn3HQyQVES6xcU53t7a21uF/u3m7b2MA21jva46tlTQQy/LfcghuJKCBmEkv5CadC7PSrAB2D872NtrbiULVlcR2u72xd3a+1bzvCCC973Pwf15jHKtiT67PZ71HPR3cQmel8WjOO00sb9QNQZAxgvx+yiYOmid7EHshoUoBjcLVyW7EEXAvq/d9sX0U4n5nH3kMwKppC/kpj9D5ZCjwjiB3Z5G5no5s68izIYADs3fiPAOh4ee7D5HW/yiM7QtAWvvorRg24hCq6yahydAKiejn8hT+0/1N2PZJ1Y8+fgo2TvIh+QP7gUzMEPTj7tSn6YhJzIq1ALoq/2j06yTc+Le/l8vlI9j0RiB9NACJjYNQ/B+saEk4+qgjGj8vBH2nibxSACcafRvDz7c/LKTKSPl3TeijAWifh+H/UEcqwtJH8LL3o68LjUeiX8F7TPZ2IvE6lSq/NZt7XKludMzxP1TtgPD0Nc9hWPqwCelEciT6XZz/tAfXWqj8qfITiP+xKf5EIh9C+f03enWSSy5mMpWW5fedqUj2l2Q6hqaPwif3p4/P124hQ6fwGs098TD4CxshlH8qHPpSd5U4eZPz3iG5KPTjYOW+9CEmQZsi0Xfzn8CZY2YeI+W/RLd7DpdVaF1CT6uAPC1XoP+FfC/BGaiemtMPk9qcq8+KxvGkMlffi770IEagD9vgjadI9PGae+USvUD499HNdq7ae49Ptk5tkYGd3zo4e7zXRna/c0nhJMTEbxmz72qck7TeZI1EPw7S96YfF/aNItHHhwwfY32+W4Bm56WBn9Y5OLtqb8On4ywEfdM6hTMeP6q9PiJ98UB3NPp8hyLRxwVdTshs8nrz8Og3t6wdL/I/3f81D042zkPQN9tPKXkHXXQNKPTVy7S9EXbWItEXlD8S/XVu1U1U24+3uE4/OXrx9nD/cnMf3dCTy83N/f3Dty+Ont4G35v+54z8rWlP9vCnNFEumb7HlUpnhKlHoW/ShDDzK/R9bgPLPC4lBQCayfcY+i9v9zfhEuDIJpr7X6TK+J/lciq1uf8WPSHh4MdVJ0eryn6yortA+hXlAbHmVtRuiocMZPpganqGl3l9YIXbJJLpB8MHa7FFvOyeJ17iBfb26eGmyxgLwvyW/ROJOwqXhy+ehKIfbPDnVnz7q5t7gunHYsSpFL5n+dFXsrysGf8HSKFvNM1ikxO4OST20X6KJw9Bo9DPPz5CgZ8uOMKNwWWYiSe4QzkpSm43phdbrVKmQT9JK9cY0dfgF5bdYPqxWFJdHLgHSKFvNM12SU4fFEfrHbCI8eu7FLY/D46JfPj0z7u7jyk6Br+FirMF2Tw50ca3py3ylxZdiZVwhRl9zeLM98aEfsxSV1aWKRmNfoumVB5duugh2Y93Fx8SiU8L7rzT2ZZd3ONPF3flhQX4XJjDV917RcRpR/TkyVOhsDWkX7k/fVJ0jv8eXcqi0YfKj+eew7KDPnX36di1P1HU7RDe8JV2v6Vw/OEfISP8AT1p8OwnpaGq4M+VlduQvnXvmSem2YRhy25E+jly2Arslx30BC8KuqXgsnrqEeOpvgy5vxKQtVnn4StJhrl70o8p4Pg5zJD+tNIIjXRGpB/L0Lnn8OKYo3ux4AZ99KqfKJyF3FwMMHmWePhqug+hrzQSUfcDLE49fWXqYRoVlX5sje4tnvGxzbsFN9yv1/zCeVj4/qd4c/7w6eAo27KG9JfkrwmugyH9lkKfbhlFpk9/G4Atbk/9oxvt1+61FNoeB7Z86PsXSF3j4OtunXhhmj8Y0ZcTT8URNqRvPQT9ZIdcCpp7BDYKN6fg7e7pNP+xH3sXk/Khr8VT4eDrcpuT+G/q9qQZfVlrxfBwdN2nexbR6ceSTYofnLerZNF1jH3F3ExUN7b84TcPtuJKP/1Vn4usaRdnknCjrh1G9BVTXfqVyPP+vVddJEnuQAk4QVsryNpH9mZTYb/Nkhk0Oh4HHZQUsX0l/gU0Lb/fz3Kqr/s7sYfy6t6wQl/j02VtZc0VU4si2zz3tThdsfI80ZN2oXDhLrpb4nwvJJIA8Oyz5pTFhrNNud0B/Mf+UYYmg69ziDPkj5o4nUJ/vi5KV5ciLD2JhvTVUOh9vS0iDe5kAwAHexdues85W4YLBTcCzb72tVj7Jibg3t7SlJTtU+6b/udUMgy+bvOXGqOaEKdJfF9dhORwUWRflz5CCv25nLdo2q5zbcMO33453PyCTB60iVioVtsbZ1vCjQDwqjYxUdt5zo/HPucct5v0cQp4FwKL7+gy3pgnoFu4I+xtgbwVhb56StMvytbJe8pkOq8+GS0hO8chDRX55dXV1cuTg1NbQg9+3ED4ExPF3jWbtF6Uy7/RtYImPATtpyeZkmqGiT0YWnctNH0A0jJ8M/qrfs9QyN0V3a3UxYdU2lEU/mK/qhUnXKnt/IEp/1l27SS8TVwlhmmA7rMYQ1zhwv1R30hI+vp2DOgvaQ6HcxNquJ1FvSK1ptRJUnsHX3u1CSLFHgnU/QvlRDyFQ0PsowMSxPA19ln2tWKWWqz8jEc6UCj6sJmGrisK/bpwnmIx29Vl7fG31Q/6sVipEcQfsb9h7KHuf8aMz6uvU4LyJ7ZJCE+3XhLhJh6ZzBzLaPGK0YWhDyZn9GkpEfd1ubvqD32o//Pe+FEv/vjWo5OOS5+ofttNRoTK3yFm0h75m48BxvzcjjQsXMzZM0Aain6nkdU+hREzSjiG/aIfmyHE1HkOgOs3xaLAfqL4Bn8fGaevsYdMAqMFMvdo/CQiLHVKsEtz/KmUR55Xh515wIpGEaLR5wus9I1+HsO3Ff7gfU1Ue0f1v+PvbyQSVPlpGnrbxn/1PiPKNJzztJJCOptPNkRYmwe2NqsESqNlEvIeZL/ok6Ty697Oqx+yJ1uT2UN57n7fBf7aDVDQMxhVvA0Amp7Kzw5N0a9UhMSSWb8TR1HsfUUVItFf41voF/01rKw3xSJZT1m3dxTVL+5gvC8LCaL80OE9oD4yWXi93N0cNXmwW7C0LKY2rHlc6EojktpKbUbJYRYXqT7RxzuN4FnNmdKlq64V5ccjRLS9QM5gtMnCexXw0lGLBnnSsVxlWj4+2PSPEJU0sWwDa0XCHyV/X1y++0Qfn2EE74rMkmdX2T1Z+WvP3O+fYmX/hPcFaGooSTL3qkNl2SovJgExipyyy6NvRoUnLCXhz67Yku3UJ/okt9Bl+7t8b19l5e+9xxYP2Zb5iFOw6NRDrE6PeENSz8uRqaAklHmFLKiXJFnMrql+qri9EpI+XIrkjvWJPi7V+MOhXLtWNEua+Ys3OOOZbr6T3Xi2Kbbra/N7018LfINIVtVr7Y1ZdRU/v00Wij78yYZiQvQhzoMET/vfarwtzzX6XJx78NLAHTQ9RnlBfwKwRR4GOvPrHV4270tzTvAB30XNrOJxY4vqDMXZneHO6zY1aqTGOGd9pOO1mHHTPjMn+WbfT/D4i98wfbYFQ5Ih2vSTU/wdrS7LyZuOrJscsUvq5nQvtcooX+Ryhkzpo5/Laz2XaFm0suC8F2hvumvqV3XB+p3XfvwF0GSpDx9S7sFfEuyhqT8eS6ict2x7hANkIWmfZvSVRDTQYdOHWX1Fp28eVO+5t4WlhNW0J0zrYi/e77ClF68MYJdLPPno+rtbdN3dxvQ7Wo+Lq6INmlP1RcuspzlimxrSzypTD3PiTKJsoNnoLnm6jP2hvyTSJ3EEqWufaayHxBkOOPoX2N+lU0/1HLeqVRxW48U7mqMR+sgY0lfTQZj/p56eyAoyN1cJeBz7Q78i0dcoP/rzH696NWcEitjcP+HyDY+x1UOnngTe5dLXgGQJDWHqc3oUT/Smn/SZ+A131X3kYXRfNToJ/+t3N71esfdDpQ/9XbjsxrloQ5Uc0tD9ZIk93MbdzHnBD0OfDfaw0C+Jqy7yd+VkGMIfgOfvf39vq/Th1FP+E20K00ysAj5Yqj9AwWqvmpzsQtLiihFFp88s4GGhT2yed9SuKb7y2m3h7l6kf7yw7+wJM4er7Wf1sBzOWbNOLrFV0V43nXkyyjgNH31i738WzJpAg4zP+0FWD1J9YUh2faINXPK4kfLzh0orSnqsvxM/5PRn+UgDlvfB9Lf4VOfqvyGXW+iYUPq4ooCHw8W83aYV2EGLP+MypeayedBXTB4+1jA09El4n/OotHaP9GN5nj40ccATMQV3A4eDtJ3iSgMEmj0VvkI3dCBM6WuOvLEo89DQx5mi4A2PfycIPxfShIIAXYrp5zi7QW9z8kcn/EPKOT7P3/GXzOhbGm+W+6mhoY9NA2d3hU39Qfj5cm7bp8A5X/0E4MozzmSEaxLo19VpQ/xS/QxkQRnQzy0ua50WBmho6JOCSczmdPHr7U52K8S1KrQR/C/lVPkFF+ckNqdXaUK+nKXX21py09JrARzPWaGfT0vihIN0XWZdGR765Py0uI9S7L33VX8CuorCyeBpyj1tarPVYA9P/PpStPzZFW0EN9aqy69kcH0HkxxmfY+5gPfw0G8BnfJPFCe++55YsVFUp9pG6f0QfhlXuWJRZmLxe9iUywKuyTlR/5NzSrXYJraeotXniYt7i8NDH1eNiYO/pC3c2isvNXJu5nG14LIHL9xyAyjKzJbdAk4T8jpBJJfSXZ2pWOjzXMlJopRllQxPZPo2N8BDRJ8k9HD+Lsbf++7NH+zi4j63+6TKxhM+0Fbdclv1MilzvpvrsrClOTJ9fpNkiOiTvgAgJzAUizvPPPljLqiSDxQU4/8C2F47OuDrfMszn7Zlzr7DhYsi0heNr2GiT3JkRIeX8P/uAPDg/2LTrfbwCcX4j/gdlsJjvx0WJMb4hcnrQeqyDZI+OVoMNMlTE8Va79t/MAbCHP/g031X7xc+Hhc+4c3dAzrxX2Gjx/L82ZxBGXwA0mJeYcSKkCKcoaLPKmd81iVuFms3765/PCc44uToyhfM/sItbAtNTnT8vV0QTU6/VIXgYvrKqzMjVAKOKxkdQ0WflnICOLNEnYBqtd7Nzc6bN2924P/IMr1fXoDsHdYf3HMUjjHknP+lkR7fRJEl//cQaLK/o1TBtmWnY7jok6o9XtqPhwALTiaMg9vU3Sc8zxyTsrZQOmftaoGcofOnH4tlvKefR7oAafgK8GBNWXqGjD4x+mFnv08oecvyMNwQ5WclNTD9+JEL7vRsz5A+XPTnNcan7VWKORR95/nR5KMr2SYDpk+bA+A/N57qj5+Bz/RJ2aM2Dk7q2bx8SgnGzehDWaqvszO8zfSUzwtrTOm7beWXtRsMq8NGn1VDQceifdSfD0GAJonoFzD9y3J5/4ixN6SPJFlaysxlKiX/AvBSiMJPJqdm5BelElFmu9BvY1MS8u75qg3+CPpf3upf2+HDb9TAZ/RT5XJqH1XuxLNTn9+/spQ1kLlMybJ8GpmbEaUe+v08WbkFo3Q8TylxjxJwDujq9L828RUA4ZvYu6X0afnUQxObZyyuiNVQEP8b5bQidLyA5PbSHRVM/793Kbd2J7L+nbnJGvSd/T9IV15GAHj26qZYY3Zmb+c6zi0OdOV18WOLc6NwfIEGgBTv1FSTHYsqml1oKL9fv0L+1c3Ou29/PQf80rDGXARkdxKL0wnwH3+4+OedW7c27Ps/RlS0gTRpXec+rrMKP86BxWPX16V1bKmzNX63q4EkffZRBPLOJ3nHdV+lLsJp+4O7tUhLqZIAM3iIt/39cpIRTR6/PUX25jvqMoL4v6Gdw22rU9U3zBUccZnhltPm9LLXAKDPuZortIAQyqZC8X2c1l9o4ypt41fZGwnZ3IU4kdeNyyZo5iCx3s06ww+e3ALwsuq8OWqDvFDQ/L1DIy151zUCHRrxqDQ6dMony256Wnbdu7wNGgfnL6/2rs5O6ZiEOp0ysmK5jPNCtClXmplaIRmv+fVHGZ3bOif5vvwaLeQRjMVTnJOwzawGlhX0nvGk5h0zZCgiHaMcPYEabJseJFEkq1+i9eWtx6LKVHT2UHJq+QQ0B92nyZGS+04RrXmpspWYhDOWBxaLVNpxV96OYh2N5WHFynTX89DS76zX9ZnLIy7/A7bF4EmDp9/fAAAAAElFTkSuQmCC;" parent="1" vertex="1">
          <mxGeometry x="596" y="497" width="41" height="14.2" as="geometry" />
        </mxCell>
        <mxCell id="32sOMgZbkoTG0NqB_-wW-42" value="ingress" style="text;html=1;strokeColor=none;fillColor=none;align=center;verticalAlign=middle;whiteSpace=wrap;rounded=0;" parent="1" vertex="1">
          <mxGeometry x="601" y="518.5" width="40" height="20" as="geometry" />
        </mxCell>
        <mxCell id="32sOMgZbkoTG0NqB_-wW-43" style="edgeStyle=none;rounded=0;orthogonalLoop=1;jettySize=auto;html=1;exitX=0;exitY=0.5;exitDx=0;exitDy=0;dashed=1;endArrow=openThin;endFill=0;strokeColor=#000000;strokeWidth=1;" parent="1" edge="1">
          <mxGeometry relative="1" as="geometry">
            <mxPoint x="648" y="530" as="targetPoint" />
            <Array as="points">
              <mxPoint x="718" y="530" />
            </Array>
            <mxPoint x="712.5" y="528.25" as="sourcePoint" />
          </mxGeometry>
        </mxCell>
        <mxCell id="32sOMgZbkoTG0NqB_-wW-50" style="edgeStyle=none;rounded=0;orthogonalLoop=1;jettySize=auto;html=1;exitX=0;exitY=0.5;exitDx=0;exitDy=0;dashed=1;endArrow=openThin;endFill=0;strokeColor=#000000;strokeWidth=1;" parent="1" source="32sOMgZbkoTG0NqB_-wW-51" edge="1">
          <mxGeometry relative="1" as="geometry">
            <mxPoint x="658.9999999999995" y="425.41176470588243" as="targetPoint" />
          </mxGeometry>
        </mxCell>
        <mxCell id="32sOMgZbkoTG0NqB_-wW-51" value="Mac-veth1" style="rounded=0;whiteSpace=wrap;html=1;strokeColor=#000000;fillColor=#FFF2CC;" parent="1" vertex="1">
          <mxGeometry x="712" y="415" width="60" height="20" as="geometry" />
        </mxCell>
        <mxCell id="32sOMgZbkoTG0NqB_-wW-52" value="Mac-eth1" style="rounded=0;whiteSpace=wrap;html=1;strokeColor=#000000;fillColor=#FFF2CC;" parent="1" vertex="1">
          <mxGeometry x="772" y="415" width="60" height="20" as="geometry" />
        </mxCell>
        <mxCell id="32sOMgZbkoTG0NqB_-wW-53" value="IP-eth0" style="rounded=0;whiteSpace=wrap;html=1;strokeColor=#000000;fillColor=#F8CECC;" parent="1" vertex="1">
          <mxGeometry x="832" y="415" width="45" height="20" as="geometry" />
        </mxCell>
        <mxCell id="32sOMgZbkoTG0NqB_-wW-54" value="IP-eth1" style="rounded=0;whiteSpace=wrap;html=1;strokeColor=#000000;fillColor=#F8CECC;" parent="1" vertex="1">
          <mxGeometry x="877" y="415" width="45" height="20" as="geometry" />
        </mxCell>
        <mxCell id="32sOMgZbkoTG0NqB_-wW-55" value="1234" style="rounded=0;whiteSpace=wrap;html=1;strokeColor=#000000;fillColor=#D5E8D4;" parent="1" vertex="1">
          <mxGeometry x="922" y="415" width="40" height="20" as="geometry" />
        </mxCell>
        <mxCell id="32sOMgZbkoTG0NqB_-wW-56" value="8080" style="rounded=0;whiteSpace=wrap;html=1;strokeColor=#000000;fillColor=#D5E8D4;" parent="1" vertex="1">
          <mxGeometry x="962" y="415" width="35" height="20" as="geometry" />
        </mxCell>
        <mxCell id="32sOMgZbkoTG0NqB_-wW-57" style="edgeStyle=none;rounded=0;orthogonalLoop=1;jettySize=auto;html=1;dashed=1;endArrow=openThin;endFill=0;strokeColor=#000000;strokeWidth=1;shape=flexArrow;" parent="1" edge="1">
          <mxGeometry relative="1" as="geometry">
            <mxPoint x="849" y="451.2" as="targetPoint" />
            <mxPoint x="849" y="511.2" as="sourcePoint" />
          </mxGeometry>
        </mxCell>
        <mxCell id="32sOMgZbkoTG0NqB_-wW-58" value="&lt;font style=&quot;font-size: 21px&quot;&gt;Pod 0 sends msg to Pod 1&lt;/font&gt;" style="text;html=1;strokeColor=none;fillColor=none;align=center;verticalAlign=middle;whiteSpace=wrap;rounded=0;dashed=1;" parent="1" vertex="1">
          <mxGeometry x="295.5" y="280" width="400" height="20" as="geometry" />
        </mxCell>
        <mxCell id="0cwynDV6n2SvqEO9_UE7-3" value="IP-eth0" style="rounded=0;whiteSpace=wrap;html=1;strokeColor=#000000;fillColor=#F8CECC;" parent="1" vertex="1">
          <mxGeometry x="87" y="518.5" width="45" height="20" as="geometry" />
        </mxCell>
        <mxCell id="0cwynDV6n2SvqEO9_UE7-4" value="IP-eth1" style="rounded=0;whiteSpace=wrap;html=1;strokeColor=#000000;fillColor=#F8CECC;" parent="1" vertex="1">
          <mxGeometry x="132" y="518.5" width="45" height="20" as="geometry" />
        </mxCell>
        <mxCell id="0cwynDV6n2SvqEO9_UE7-5" value="1234" style="rounded=0;whiteSpace=wrap;html=1;strokeColor=#000000;fillColor=#D5E8D4;" parent="1" vertex="1">
          <mxGeometry x="177" y="518.5" width="40" height="20" as="geometry" />
        </mxCell>
        <mxCell id="0cwynDV6n2SvqEO9_UE7-6" value="8080" style="rounded=0;whiteSpace=wrap;html=1;strokeColor=#000000;fillColor=#D5E8D4;" parent="1" vertex="1">
          <mxGeometry x="217" y="518.5" width="35" height="20" as="geometry" />
        </mxCell>
        <mxCell id="0cwynDV6n2SvqEO9_UE7-9" value="IP-eth0" style="rounded=0;whiteSpace=wrap;html=1;strokeColor=#000000;fillColor=#F8CECC;" parent="1" vertex="1">
          <mxGeometry x="922" y="518.5" width="45" height="20" as="geometry" />
        </mxCell>
        <mxCell id="0cwynDV6n2SvqEO9_UE7-10" value="IP-eth1" style="rounded=0;whiteSpace=wrap;html=1;strokeColor=#000000;fillColor=#F8CECC;" parent="1" vertex="1">
          <mxGeometry x="967" y="518.5" width="45" height="20" as="geometry" />
        </mxCell>
        <mxCell id="0cwynDV6n2SvqEO9_UE7-11" value="1234" style="rounded=0;whiteSpace=wrap;html=1;strokeColor=#000000;fillColor=#D5E8D4;" parent="1" vertex="1">
          <mxGeometry x="1012" y="518.5" width="40" height="20" as="geometry" />
        </mxCell>
        <mxCell id="0cwynDV6n2SvqEO9_UE7-12" value="8080" style="rounded=0;whiteSpace=wrap;html=1;strokeColor=#000000;fillColor=#D5E8D4;" parent="1" vertex="1">
          <mxGeometry x="1052" y="518.5" width="35" height="20" as="geometry" />
        </mxCell>
        <mxCell id="0cwynDV6n2SvqEO9_UE7-14" value="&lt;table cellpadding=&quot;4&quot; cellspacing=&quot;0&quot; border=&quot;1&quot; style=&quot;font-size: 1em ; width: 100% ; height: 100%&quot;&gt;&lt;tbody&gt;&lt;tr&gt;&lt;th&gt;Pod IP&lt;/th&gt;&lt;th&gt;Pod Vethpair Mac&amp;amp;ifindex&lt;/th&gt;&lt;/tr&gt;&lt;tr&gt;&lt;td&gt;IP-eth0&lt;/td&gt;&lt;td&gt;Mac-eth0, Mac-veth0, ifindex-eth0, ifindex-veth0&lt;/td&gt;&lt;/tr&gt;&lt;tr&gt;&lt;td&gt;IP-eth1&lt;/td&gt;&lt;td&gt;Mac-eth1, Mac-veth1, ifindex-eth1, ifindex-veth1&lt;/td&gt;&lt;/tr&gt;&lt;/tbody&gt;&lt;/table&gt; " style="verticalAlign=top;align=left;overflow=fill;fontSize=12;fontFamily=Helvetica;html=1;strokeColor=#000000;fillColor=#FFFFFF;" parent="1" vertex="1">
          <mxGeometry x="645" y="620" width="322.5" height="90" as="geometry" />
        </mxCell>
        <mxCell id="0cwynDV6n2SvqEO9_UE7-15" value="Pod IP -&amp;gt; Pod Vethpair Mac&amp;amp;ifindex(inner and outer )" style="text;html=1;align=center;verticalAlign=middle;resizable=0;points=[];autosize=1;strokeColor=none;" parent="1" vertex="1">
          <mxGeometry x="636.5" y="600" width="300" height="20" as="geometry" />
        </mxCell>
        <mxCell id="0cwynDV6n2SvqEO9_UE7-16" value="&lt;table cellpadding=&quot;4&quot; cellspacing=&quot;0&quot; border=&quot;1&quot; style=&quot;font-size: 1em ; width: 100% ; height: 100%&quot;&gt;&lt;tbody&gt;&lt;tr&gt;&lt;th&gt;Pod IP&lt;/th&gt;&lt;th&gt;Host IP&lt;/th&gt;&lt;/tr&gt;&lt;tr&gt;&lt;td&gt;IP-eth0&lt;/td&gt;&lt;td&gt;IP-ens0&lt;/td&gt;&lt;/tr&gt;&lt;tr&gt;&lt;td&gt;IP-eth1&lt;/td&gt;&lt;td&gt;IP-ens1&lt;/td&gt;&lt;/tr&gt;&lt;/tbody&gt;&lt;/table&gt; " style="verticalAlign=top;align=left;overflow=fill;fontSize=12;fontFamily=Helvetica;html=1;strokeColor=#000000;fillColor=#FFFFFF;" parent="1" vertex="1">
          <mxGeometry x="370" y="620" width="230" height="90" as="geometry" />
        </mxCell>
        <mxCell id="0cwynDV6n2SvqEO9_UE7-17" value="Pod IP -&amp;gt; Host IP" style="text;html=1;align=center;verticalAlign=middle;resizable=0;points=[];autosize=1;strokeColor=none;" parent="1" vertex="1">
          <mxGeometry x="370" y="600" width="110" height="20" as="geometry" />
        </mxCell>
        <mxCell id="0cwynDV6n2SvqEO9_UE7-18" value="&lt;table cellpadding=&quot;4&quot; cellspacing=&quot;0&quot; border=&quot;1&quot; style=&quot;font-size: 1em ; width: 100% ; height: 100%&quot;&gt;&lt;tbody&gt;&lt;tr&gt;&lt;th&gt;Host IP&lt;/th&gt;&lt;th&gt;Host Mac&amp;amp;ifindex&lt;/th&gt;&lt;/tr&gt;&lt;tr&gt;&lt;td&gt;IP-ens0&lt;/td&gt;&lt;td&gt;Mac-ens0, ifindex-ens0&lt;/td&gt;&lt;/tr&gt;&lt;tr&gt;&lt;td&gt;IP-ens1&lt;/td&gt;&lt;td&gt;Mac-eth1, ifindex-ens1&lt;/td&gt;&lt;/tr&gt;&lt;/tbody&gt;&lt;/table&gt; " style="verticalAlign=top;align=left;overflow=fill;fontSize=12;fontFamily=Helvetica;html=1;strokeColor=#000000;fillColor=#FFFFFF;" parent="1" vertex="1">
          <mxGeometry x="27.5" y="620" width="302.5" height="90" as="geometry" />
        </mxCell>
        <mxCell id="0cwynDV6n2SvqEO9_UE7-19" value="Host IP-&amp;gt;Host Mac &amp;amp; ifindex" style="text;html=1;align=center;verticalAlign=middle;resizable=0;points=[];autosize=1;strokeColor=none;" parent="1" vertex="1">
          <mxGeometry x="20" y="600" width="170" height="20" as="geometry" />
        </mxCell>
        <mxCell id="0cwynDV6n2SvqEO9_UE7-20" value="Mac-ens0" style="rounded=0;whiteSpace=wrap;html=1;strokeColor=#000000;fillColor=#FFF2CC;" parent="1" vertex="1">
          <mxGeometry x="-123" y="518.5" width="60" height="20" as="geometry" />
        </mxCell>
        <mxCell id="0cwynDV6n2SvqEO9_UE7-21" value="Mac-ens1" style="rounded=0;whiteSpace=wrap;html=1;strokeColor=#000000;fillColor=#FFF2CC;" parent="1" vertex="1">
          <mxGeometry x="-63" y="518.5" width="60" height="20" as="geometry" />
        </mxCell>
        <mxCell id="0cwynDV6n2SvqEO9_UE7-22" value="IP-ens0" style="rounded=0;whiteSpace=wrap;html=1;strokeColor=#000000;fillColor=#F8CECC;" parent="1" vertex="1">
          <mxGeometry x="-3" y="518.5" width="45" height="20" as="geometry" />
        </mxCell>
        <mxCell id="0cwynDV6n2SvqEO9_UE7-23" value="IP-ens1" style="rounded=0;whiteSpace=wrap;html=1;strokeColor=#000000;fillColor=#F8CECC;" parent="1" vertex="1">
          <mxGeometry x="42" y="518.5" width="45" height="20" as="geometry" />
        </mxCell>
        <mxCell id="0cwynDV6n2SvqEO9_UE7-29" value="Mac-ens0" style="rounded=0;whiteSpace=wrap;html=1;strokeColor=#000000;fillColor=#FFF2CC;" parent="1" vertex="1">
          <mxGeometry x="712" y="518.5" width="60" height="20" as="geometry" />
        </mxCell>
        <mxCell id="0cwynDV6n2SvqEO9_UE7-30" value="Mac-ens1" style="rounded=0;whiteSpace=wrap;html=1;strokeColor=#000000;fillColor=#FFF2CC;" parent="1" vertex="1">
          <mxGeometry x="772" y="518.5" width="60" height="20" as="geometry" />
        </mxCell>
        <mxCell id="0cwynDV6n2SvqEO9_UE7-31" value="IP-ens0" style="rounded=0;whiteSpace=wrap;html=1;strokeColor=#000000;fillColor=#F8CECC;" parent="1" vertex="1">
          <mxGeometry x="832" y="518.5" width="45" height="20" as="geometry" />
        </mxCell>
        <mxCell id="0cwynDV6n2SvqEO9_UE7-32" value="IP-ens1" style="rounded=0;whiteSpace=wrap;html=1;strokeColor=#000000;fillColor=#F8CECC;" parent="1" vertex="1">
          <mxGeometry x="877" y="518.5" width="45" height="20" as="geometry" />
        </mxCell>
      </root>
    </mxGraphModel>
  </diagram>
</mxfile>
